<svg width="188" height="49" fill="none" xmlns="http://www.w3.org/2000/svg"><path d="M32.196 37.983a.45.45 0 01-.636 0L17.887 24.31c-1.466-1.46-3.858-1.465-5.322-.005L9.938 21.69c2.914-2.901 7.66-2.896 10.579.008L34.219 35.4a.405.405 0 010 .58l-2.023 2.003z" fill="#5F4F95"/><path d="M29.163 13.776l-2.424 2.416-.225.218c-3.866-3.849-10.156-3.849-14.024 0-.317.318-.612.652-.88.999l-.037.054-.006.005a.37.37 0 01-.525.076l-.03-.027-2.14-2.13-.03-.03c-.002 0-.002-.003-.002-.003a.367.367 0 01-.008-.452l.04-.054a13.701 13.701 0 01.971-1.075c5.33-5.298 13.993-5.298 19.32.003z" fill="#E81F76"/><path d="M33.164 23.39a13.47 13.47 0 01-4 9.616 13.65 13.65 0 01-9.66 3.978 13.644 13.644 0 01-9.657-3.978l2.646-2.631c3.868 3.848 10.158 3.848 14.024 0a9.799 9.799 0 002.909-6.984 9.786 9.786 0 00-2.909-6.981l2.646-2.634a13.475 13.475 0 014.001 9.615z" fill="#EB7623"/><path d="M9.947 33.063a8.024 8.024 0 010-11.38l2.627 2.613a4.344 4.344 0 000 6.151l-2.627 2.616z" fill="#3CB4E5"/><path d="M44.352 24.272c0 3.851 2.654 5.99 5.208 5.99 1.847 0 3.741-1.008 4.829-3.073.051-.124.203-.176.303-.1l2.326 1.484c.076.048.127.175.076.25-1.542 3.146-4.475 4.63-7.407 4.63-4.375 0-8.774-3.245-8.774-9.184 0-5.941 4.4-9.187 8.774-9.187 2.932 0 5.865 1.487 7.407 4.63.051.078 0 .202-.076.253l-2.326 1.484c-.1.075-.252.027-.303-.1-1.088-2.063-2.982-3.07-4.83-3.07-2.578.003-5.207 2.165-5.207 5.993zm14.081 4.91c0 3.851 3.336 5.235 6.217 3.399l1.77-1.134c.175-.124.33-.027.33.153v1.282c0 .1.1.2.2.2h2.881c.1 0 .203-.1.203-.2V20.698c0-.1-.1-.202-.203-.202H66.95c-.1 0-.2.1-.2.202v6.795c0 2.165-1.367 3.197-2.684 3.197-1.212 0-2.351-.63-2.351-2.543v-7.45c0-.099-.1-.201-.2-.201h-2.881c-.103 0-.203.1-.203.202v8.484h.002zm14.081 3.899h2.882c.1 0 .203-.1.203-.202V15.664c0-.1-.1-.202-.203-.202h-2.882c-.1 0-.203.1-.203.202v17.215c0 .1.103.202.203.202zM87.03 22.335v-1.637c0-.1.1-.2.2-.2h2.883c.1 0 .2.1.2.2v17.215c0 .1-.1.2-.2.2H87.23c-.1 0-.2-.1-.2-.2v-6.24c0-.202-.23-.277-.38-.127-1.038 1.207-2.478 1.813-3.717 1.813-2.78 0-5.562-2.19-5.562-6.518 0-3.827 2.578-6.62 5.235-6.62.633 0 1.442.2 2.2.805l1.893 1.46c.152.1.33.024.33-.15zm-6.247 4.48c0 1.963 1.393 3.573 3.21 3.573 1.467 0 3.036-1.56 3.036-3.7 0-2.39-1.644-3.626-3.008-3.626-1.62 0-3.238 1.21-3.238 3.752zm13.224-7.903c1.136 0 2.02-.854 2.02-2.066 0-1.155-.881-2.012-2.02-2.012-1.19 0-2.1.857-2.1 2.012 0 1.158.91 2.066 2.1 2.066zm-1.467 14.17h2.881c.103 0 .203-.1.203-.203v-12.18c0-.1-.1-.202-.203-.202h-2.88c-.1 0-.204.1-.204.202V32.88c0 .1.1.203.203.203z" fill="#000"/><path d="M99.017 17.625h10.026v2.354h-7.57v4.188h6.32v2.353h-6.32v4.595h7.57v2.354H99.017V17.624zm12.095 15.845l4.591-5.953-4.615-5.93h2.954l3.228 4.188 2.727-4.189h2.773l-4.229 5.864 4.637 6.02h-2.865l-3.273-4.232-3.182 4.256-2.746-.025zm20.28-12.088c1.06 0 2.012.26 2.854.78.841.52 1.504 1.242 1.988 2.16.485.922.728 1.986.728 3.192 0 1.193-.243 2.252-.728 3.181-.484.93-1.144 1.657-1.977 2.184-.834.528-1.767.792-2.798.792-.849 0-1.618-.18-2.307-.544-.69-.36-1.231-.776-1.626-1.244v6.564h-2.365V21.561h2.365v1.743c.349-.499.871-.943 1.569-1.336a4.619 4.619 0 012.297-.587zm-.32 2.152c-.711 0-1.344.172-1.899.52a3.603 3.603 0 00-1.296 1.413c-.311.596-.465 1.28-.465 2.047 0 .754.154 1.433.465 2.036a3.672 3.672 0 001.296 1.439c.552.355 1.185.53 1.899.53.712 0 1.342-.177 1.886-.53a3.68 3.68 0 001.285-1.439c.311-.603.465-1.282.465-2.036 0-.77-.156-1.451-.465-2.047a3.628 3.628 0 00-1.285-1.414c-.544-.347-1.174-.52-1.886-.52zm15.118.566a2.56 2.56 0 00-.557-.192 3.004 3.004 0 00-2.124.296c-.471.248-.86.604-1.171 1.064-.311.46-.466 1.008-.466 1.64v6.564h-2.364V21.586h2.364v2.241a4.354 4.354 0 011.513-1.788c.673-.469 1.382-.7 2.126-.7.56 0 .993.075 1.296.226l-.617 2.534zm12.732 7.807h-.022c-.484.469-1.152.884-2.002 1.245a6.738 6.738 0 01-2.659.544c-1.242 0-2.338-.262-3.285-.781a5.66 5.66 0 01-2.215-2.15c-.531-.913-.796-1.95-.796-3.11 0-1.328.282-2.465.842-3.408a5.801 5.801 0 012.229-2.173 6.191 6.191 0 013.025-.757c1.001 0 1.91.245 2.727.735a5.43 5.43 0 011.956 2.026c.487.859.727 1.864.727 3.01l-.021.997h-9.139c.135 1.072.579 1.92 1.331 2.546.749.627 1.702.94 2.854.94.833 0 1.507-.154 2.024-.464a9.48 9.48 0 001.274-.894l1.15 1.694zm-4.889-8.443c-.895 0-1.674.207-2.343.622-.668.415-1.106 1.128-1.317 2.138h6.685v-.156a2.604 2.604 0 00-.512-1.357 3.04 3.04 0 00-1.103-.916 3.094 3.094 0 00-1.41-.331zm14.847 1.244a5.632 5.632 0 00-1.445-1.042c-.538-.272-1.033-.407-1.488-.407a4.01 4.01 0 00-.944.113 1.685 1.685 0 00-.784.418c-.214.204-.32.5-.32.894.014.544.263.929.739 1.155.476.226 1.071.431 1.786.612a14.01 14.01 0 011.818.622 3.729 3.729 0 011.466 1.085c.387.474.579 1.142.579 2.004 0 .74-.208 1.373-.625 1.901a4.014 4.014 0 01-1.615 1.212 5.27 5.27 0 01-2.081.418 7.405 7.405 0 01-2.556-.463c-.842-.307-1.559-.84-2.148-1.595l1.59-1.357c.409.468.877.835 1.399 1.099s1.164.396 1.921.396c.287 0 .576-.049.863-.149a1.77 1.77 0 00.739-.476c.205-.218.305-.517.305-.895 0-.36-.111-.646-.33-.848-.219-.205-.511-.369-.876-.498-.363-.13-.766-.245-1.204-.35a15.91 15.91 0 01-1.921-.668 4.098 4.098 0 01-1.569-1.131c-.417-.49-.625-1.159-.625-2.004 0-.709.2-1.317.603-1.82.401-.507.928-.898 1.58-1.178a5.242 5.242 0 012.091-.417c.712 0 1.486.15 2.319.452a4.695 4.695 0 012.07 1.45l-1.337 1.467zm10.89 0a5.65 5.65 0 00-1.445-1.042c-.538-.272-1.033-.407-1.488-.407a4.01 4.01 0 00-.944.113 1.689 1.689 0 00-.785.418c-.213.204-.319.5-.319.894.014.544.263.929.739 1.155.476.226 1.071.431 1.785.612a14.01 14.01 0 011.818.622c.59.247 1.08.611 1.467 1.085.386.474.579 1.142.579 2.004 0 .74-.209 1.373-.625 1.901a4.01 4.01 0 01-1.616 1.212c-.66.28-1.352.418-2.08.418a7.415 7.415 0 01-2.557-.463c-.841-.307-1.558-.84-2.148-1.595l1.591-1.357c.409.468.877.835 1.399 1.099s1.163.396 1.921.396c.286 0 .576-.049.863-.149.286-.096.533-.255.738-.476.206-.218.306-.517.306-.895 0-.36-.111-.646-.33-.848-.219-.205-.511-.369-.877-.498-.362-.13-.765-.245-1.204-.35a15.835 15.835 0 01-1.92-.668 4.101 4.101 0 01-1.57-1.131c-.416-.49-.624-1.159-.624-2.004 0-.709.2-1.317.603-1.82.4-.507.928-.898 1.58-1.178a5.242 5.242 0 012.091-.417c.712 0 1.485.15 2.319.452a4.686 4.686 0 012.069 1.45l-1.336 1.467z" fill="#3CB4E5"/></svg>